<svg width="438" height="371" xmlns="http://www.w3.org/2000/svg">
  <g fill="none" fill-rule="evenodd">
    <path d="M379.71 131c11.24 20.87 24.1 33.73 38.61 38.57 21.77 7.27 42.81 62.61-38.6 68.17-54.29 3.7-54.29-31.88 0-106.74z" fill="#DAE1E9"/>
    <path d="M109 315.2c17.76 34.92 47.86 53.48 90.3 55.65 42.42 2.17 88.63-19.17 138.62-64.02L379 269.74 216.36 216l-100.79 49.52-6.57 49.67z" fill="#E8ECEF"/>
    <path d="M53.96 174.22c-24.3-22.92-27.47-53.68-9.5-92.28 26.95-57.9 156.62-4.7 199.97-20.43 43.34-15.74 93.82-91.07 154.03-48.79 40.13 28.19 37.94 76.06-6.57 143.61L209.69 197 53.97 174.22z" fill="#E8EBF0"/>
    <path d="M84 239.94c-7.36 11.53-26.1 16.04-56.23 13.54-45.18-3.77-25.72 50.6-7.92 64.02 17.8 13.42 93.86 55.18 119.87-15.5 17.34-47.14-1.23-67.82-55.72-62.06z" fill="#DAE1E9"/>
    <path d="M351.36 302.96h-89.34v34.01h19.78c3.6-.11 7.02 1.5 8.84 4.17a7.43 7.43 0 010 8.68c-1.86 2.68-5.24 4.29-8.84 4.17H163.05c-5.47 0-9.89-3.8-9.89-8.49 0-4.7 4.42-8.5 9.89-8.5h19.78v-34H83.6C61.74 303 44 287.77 44 269V115.96C44 97.2 61.74 82 83.6 82h267.8c21.86 0 39.56 15.2 39.6 33.97v152.98c-.04 18.78-17.78 34.01-39.64 34.01zM63.78 266.8v2.2c0 9.39 8.84 16.99 19.77 16.99h267.81c10.93 0 19.82-7.64 19.82-16.99v-2.2H63.78z" fill="#B4C1D1" fill-rule="nonzero"/>
    <rect fill="#E8EBF0" x="208" y="117" width="164" height="13" rx="6.5"/>
    <rect fill="#E8EBF0" opacity=".5" x="282" y="146" width="90" height="13" rx="6.5"/>
    <rect fill="#E8EBF0" opacity=".5" x="209" y="202" width="163" height="13" rx="6.5"/>
    <rect fill="#E8EBF0" opacity=".5" x="209" y="231" width="163" height="13" rx="6.5"/>
    <rect fill="#E8EBF0" opacity=".5" x="245" y="146" width="28" height="13" rx="6.5"/>
    <rect fill="#E8EBF0" opacity=".5" x="208" y="146" width="28" height="13" rx="6.5"/>
    <rect fill="#E8EBF0" x="208" y="175" width="164" height="13" rx="6.5"/>
    <path d="M182.24 151.46l-18.63-18.37a6.39 6.39 0 00-9.45 0l-18.39 18.37a6.88 6.88 0 000 9.44l18.64 18.36a6.39 6.39 0 009.2 0l18.63-18.62a6.88 6.88 0 000-9.18zm-23.23 23.21l-18.64-18.62 18.64-18.37 18.38 18.37-18.38 18.62zm-38.56-37.5H93.13a5.62 5.62 0 00-6.12 5.87v27.3a5.87 5.87 0 006.12 6.12h27.32a5.88 5.88 0 006.13-6.12v-27.05a5.87 5.87 0 00-6.13-6.12zm0 51.53H93.13a6.39 6.39 0 00-6.12 6.64v26.02a6.38 6.38 0 006.64 6.63h26.04a6.64 6.64 0 006.9-6.12v-27.04a6.38 6.38 0 00-6.9-6.13h.76zm45.45 0h-21.19a5.88 5.88 0 00-6.13 6.13v27.04a6.9 6.9 0 007.15 6.12h26.3a5.62 5.62 0 005.87-6.12v-27.04a5.61 5.61 0 00-5.87-6.13h-6.13z" fill="#F1F2F6" fill-rule="nonzero"/>
  </g>
</svg>